# xmcd
#
# Track frame offsets:
#	150
#	13748
#	23025
#	35417
#	47360
#	60360
#	73881
#	86131
#	95993
#	109453
#	123595
#	135352
#	153657
#	170655
#
# Disc length: 2493 seconds
#
# Revision: 1
# Processed by: cddbd v1.5.2PL0 Copyright (c) Steve Scherf et al.
# Submitted via: audiograbber 1.83.01
#
DISCID=c209bb0e
DTITLE=Pulkrock - Návrat domu
DYEAR=1900
DGENRE=
TTITLE0=Stastná hvezda
TTITLE1=Bojím se
TTITLE2=Casto mívám pocit
TTITLE3=Plátna kin
TTITLE4=Cesta
TTITLE5=Kanál La Manche
TTITLE6=Co se muze stát
TTITLE7=Strídá
TTITLE8=Skládanka slov
TTITLE9=Mne se to zdá málo
TTITLE10=Rekni mi (pro Nelu)
TTITLE11=Andel
TTITLE12=Líza
TTITLE13=Návrat domu
EXTD=
EXTT0=
EXTT1=
EXTT2=
EXTT3=
EXTT4=
EXTT5=
EXTT6=
EXTT7=
EXTT8=
EXTT9=
EXTT10=
EXTT11=
EXTT12=
EXTT13=
PLAYORDER=
